<?xml version="1.0" encoding="utf-8"?>
<!-- Generator: Adobe Illustrator 27.2.0, SVG Export Plug-In . SVG Version: 6.00 Build 0)  -->
<svg version="1.1" id="Layer_1" xmlns="http://www.w3.org/2000/svg" xmlns:xlink="http://www.w3.org/1999/xlink" x="0px" y="0px"
	 viewBox="0 0 3600 1800" style="enable-background:new 0 0 3600 1800;" xml:space="preserve">
<style type="text/css">
	.st0{fill:#323232;}
</style>
<g id="top">
	
		<image style="display:none;overflow:visible;enable-background:new    ;" width="1916" height="344" xlink:href="18C4602.jpg"  transform="matrix(1.5986 0 0 1.5986 168.7467 1368.9746)">
	</image>
	<polygon class="st0" points="-16.1,1693.5 70,1693.5 70,1840.8 87.4,1840.8 87.4,1569.5 218.5,1569.5 218.5,1503.5 280.8,1503.5 
		280.8,1476.9 326.6,1476.9 326.6,1368.6 378.9,1368.6 378.9,1476.9 517.3,1476.9 517.3,1666.6 541.1,1666.6 541.1,1564 619.9,1564 
		619.9,1706 847.2,1706 847.2,1923.3 867.4,1923.3 867.4,1599.7 908.6,1599.7 908.6,1571.3 1023.2,1571.3 1023.2,1599.7 
		1070.8,1599.7 1070.8,1796.8 1093.8,1796.8 1093.8,1682.2 1185.3,1682.2 1185.3,1637.3 1347.7,1637.3 1347.7,1620.8 1322.8,1620.8 
		1322.8,1605.2 1358.7,1605.2 1358.7,1639.1 1411.8,1639.1 1411.8,1630.9 1426.4,1630.9 1426.4,1638.7 1434.7,1638.7 1434.7,1630.4 
		1446.2,1630.4 1446.2,1641 1465.4,1641 1465.4,1632.3 1486.4,1632.3 1486.4,1854.5 1508.1,1854.5 1508.1,1693.5 1553.8,1680.4 
		1601.9,1681.7 1631.8,1693.5 1662.1,1682.2 1719.8,1682.2 1739.4,1693.5 1781.7,1693.5 1781.7,1877 1799.1,1877 1799.1,1624.9 
		1893.8,1593.3 1964.9,1593.3 1964.9,1418.2 1991.9,1418.2 1991.9,1385.2 2012.2,1385.2 2012.2,1419.8 2123.4,1419.8 2123.4,1944.6 
		2136.8,1944.6 2136.8,1772.9 2201.6,1772.9 2201.6,1668.5 2372.1,1668.5 2372.1,1766.8 2449.6,1717.9 2449.6,1557.6 2465.9,1557.6 
		2474.1,1539.2 2487.9,1539.2 2496.9,1524.6 2621.6,1524.6 2621.6,1703.3 2648.2,1703.3 2648.2,1595.1 2750.9,1595.1 2750.9,1564 
		2793.1,1564 2793.1,1540.1 2811.4,1540.1 2811.4,1564 2836.1,1564 2836.1,1544.7 2845.2,1544.7 2845.2,1564.9 2945.1,1564.9 
		2945.1,1711.5 3017.6,1693.5 3079.9,1605.2 3196.4,1605.2 3196.4,1586 3217.4,1586 3217.4,1608 3246.8,1608 3313.6,1693.5 
		3371.4,1693.5 3371.4,1892.1 3390.6,1892.1 3390.6,1617.1 3457.6,1617.1 3457.6,1562.1 3531.8,1562.1 3531.8,1618 3587.6,1618 
		3616.1,1589.6 3616.1,2027.7 -16.1,2027.7 	"/>
</g>
</svg>
