<?xml version="1.0" encoding="utf-8"?>
<!-- Generator: Adobe Illustrator 27.2.0, SVG Export Plug-In . SVG Version: 6.00 Build 0)  -->
<svg version="1.1" id="Layer_2_00000029026182820265012010000014281694407607765903_"
	 xmlns="http://www.w3.org/2000/svg" xmlns:xlink="http://www.w3.org/1999/xlink" x="0px" y="0px" viewBox="0 0 1477 1091"
	 style="enable-background:new 0 0 1477 1091;" xml:space="preserve">
<style type="text/css">
	.st0{display:none;fill:#74FFD6;}
	.st1{display:none;}
	.st2{display:inline;fill:#5D5D5D;}
	.st3{display:inline;fill:#D7D7D7;}
	.st4{display:inline;fill:#D1D1D1;}
	.st5{display:inline;fill:#B2B2B2;}
	.st6{display:inline;fill:#979797;}
	.st7{display:inline;fill:#808080;}
	.st8{display:inline;fill:#6D6D6D;}
	.st9{display:none;opacity:0.53;}
	.st10{fill:#EBEBEB;}
	.st11{fill:#D7D7D7;}
	.st12{fill:#B2B2B2;}
	.st13{fill:#D1D1D1;}
	.st14{fill:#5D5D5D;}
	.st15{fill:#6D6D6D;}
	.st16{fill:#808080;}
	.st17{fill:#979797;}
	.st18{opacity:0.49;fill:#FFE9E9;enable-background:new    ;}
</style>
<path class="st0" d="M-36.1,898.8c44.8-17.7,112.9-44.4,196.3-76.6c170.5-65.9,205.6-77.7,261.3-102.2
	c71-31.2,171.2-81.2,286.5-160.5c10.9-0.7,21.9-1.4,32.8-2c61.5,44,151.4,101.8,268.1,154.6c50.6,22.9,89,37.1,204.6,80
	c73.8,27.4,176.1,65.4,299.6,111.5C996.7,901.9,480.3,900.3-36.1,898.8z"/>
<g id="Layer_5" class="st1">
	
		<rect x="39.7" y="374" transform="matrix(0.7071 -0.7071 0.7071 0.7071 -280.8247 205.142)" class="st2" width="135.1" height="135.1"/>
	
		<rect x="681.3" y="203" transform="matrix(0.7071 -0.7071 0.7071 0.7071 28.0084 608.7445)" class="st3" width="135.1" height="135.1"/>
	
		<rect x="768.7" y="247.5" transform="matrix(0.7071 -0.7071 0.7071 0.7071 22.1389 683.6122)" class="st4" width="135.1" height="135.1"/>
	
		<rect x="585.8" y="247.5" transform="matrix(0.7071 -0.7071 0.7071 0.7071 -31.4004 554.2533)" class="st4" width="135.1" height="135.1"/>
	
		<rect x="864.3" y="271.3" transform="matrix(0.7071 -0.7071 0.7071 0.7071 33.334 758.1476)" class="st5" width="135.1" height="135.1"/>
	
		<rect x="490.3" y="266.3" transform="matrix(0.7071 -0.7071 0.7071 0.7071 -72.6946 492.2294)" class="st5" width="135.1" height="135.1"/>
	
		<rect x="979.4" y="289.7" transform="matrix(0.7071 -0.7071 0.7071 0.7071 54.0015 844.9455)" class="st6" width="135.1" height="135.1"/>
	
		<rect x="379.1" y="289.7" transform="matrix(0.7071 -0.7071 0.7071 0.7071 -121.7989 420.4517)" class="st6" width="135.1" height="135.1"/>
	
		<rect x="271.4" y="325.2" transform="matrix(0.7071 -0.7071 0.7071 0.7071 -178.4546 354.6897)" class="st7" width="135.1" height="135.1"/>
	
		<rect x="1068" y="325.2" transform="matrix(0.7071 -0.7071 0.7071 0.7071 54.858 917.9694)" class="st7" width="135.1" height="135.1"/>
	
		<rect x="161.9" y="361.9" transform="matrix(0.7071 -0.7071 0.7071 0.7071 -236.4595 288.0569)" class="st8" width="135.1" height="135.1"/>
	
		<rect x="1282.3" y="374" transform="matrix(0.7071 -0.7071 0.7071 0.7071 83.1203 1083.7852)" class="st2" width="135.1" height="135.1"/>
	
		<rect x="1180.1" y="343" transform="matrix(0.7071 -0.7071 0.7071 0.7071 75.114 1002.4512)" class="st8" width="135.1" height="135.1"/>
</g>
<g id="Layer_3" class="st9">
	
		<rect x="1053" y="1024.6" transform="matrix(0.7071 -0.7071 0.7071 0.7071 -444.0766 1112.2256)" class="st2" width="135.1" height="135.1"/>
	
		<rect x="862" y="1024.7" transform="matrix(0.7071 -0.7071 0.7071 0.7071 -500.0697 977.209)" class="st2" width="135.1" height="135.1"/>
	
		<rect x="479.9" y="1024.7" transform="matrix(0.7071 -0.7071 0.7071 0.7071 -611.9778 707.0242)" class="st2" width="135.1" height="135.1"/>
	
		<rect x="670.9" y="1024.6" transform="matrix(0.7071 -0.7071 0.7071 0.7071 -555.9869 842.0399)" class="st2" width="135.1" height="135.1"/>
	
		<rect x="288.8" y="1024.6" transform="matrix(0.7071 -0.7071 0.7071 0.7071 -667.8949 571.8552)" class="st2" width="135.1" height="135.1"/>
	
		<rect x="97.8" y="1024.6" transform="matrix(0.7071 -0.7071 0.7071 0.7071 -723.8464 436.8031)" class="st2" width="135.1" height="135.1"/>
	
		<rect x="1244.1" y="1024.7" transform="matrix(0.7071 -0.7071 0.7071 0.7071 -388.1594 1247.3948)" class="st2" width="135.1" height="135.1"/>
	
		<rect x="670.9" y="451.5" transform="matrix(0.7071 -0.7071 0.7071 0.7071 -150.7501 674.1804)" class="st3" width="135.1" height="135.1"/>
	
		<rect x="766.5" y="547.1" transform="matrix(0.7071 -0.7071 0.7071 0.7071 -190.3347 769.7994)" class="st4" width="135.1" height="135.1"/>
	
		<rect x="575.4" y="547" transform="matrix(0.7071 -0.7071 0.7071 0.7071 -246.2518 634.6302)" class="st4" width="135.1" height="135.1"/>
	
		<rect x="862" y="642.6" transform="matrix(0.7071 -0.7071 0.7071 0.7071 -229.8849 865.301)" class="st5" width="135.1" height="135.1"/>
	
		<rect x="670.9" y="642.5" transform="matrix(0.7071 -0.7071 0.7071 0.7071 -285.802 730.1318)" class="st5" width="135.1" height="135.1"/>
	
		<rect x="479.9" y="642.6" transform="matrix(0.7071 -0.7071 0.7071 0.7071 -341.793 595.1163)" class="st5" width="135.1" height="135.1"/>
	
		<rect x="575.4" y="738" transform="matrix(0.7071 -0.7071 0.7071 0.7071 -381.3038 690.5817)" class="st6" width="135.1" height="135.1"/>
	
		<rect x="766.5" y="738" transform="matrix(0.7071 -0.7071 0.7071 0.7071 -325.2988 825.6801)" class="st6" width="135.1" height="135.1"/>
	
		<rect x="957.4" y="738.1" transform="matrix(0.7071 -0.7071 0.7071 0.7071 -269.5059 960.715)" class="st6" width="135.1" height="135.1"/>
	
		<rect x="384.3" y="738" transform="matrix(0.7071 -0.7071 0.7071 0.7071 -437.2776 555.466)" class="st6" width="135.1" height="135.1"/>
	
		<rect x="288.9" y="833.5" transform="matrix(0.7071 -0.7071 0.7071 0.7071 -532.7085 515.9449)" class="st7" width="135.1" height="135.1"/>
	
		<rect x="479.8" y="833.5" transform="matrix(0.7071 -0.7071 0.7071 0.7071 -476.8278 650.9092)" class="st7" width="135.1" height="135.1"/>
	
		<rect x="671" y="833.5" transform="matrix(0.7071 -0.7071 0.7071 0.7071 -420.8005 786.1298)" class="st7" width="135.1" height="135.1"/>
	
		<rect x="861.8" y="833.5" transform="matrix(0.7071 -0.7071 0.7071 0.7071 -364.9198 921.094)" class="st7" width="135.1" height="135.1"/>
	
		<rect x="1052.9" y="833.5" transform="matrix(0.7071 -0.7071 0.7071 0.7071 -308.9732 1056.1641)" class="st7" width="135.1" height="135.1"/>
	
		<rect x="193.3" y="929.1" transform="matrix(0.7071 -0.7071 0.7071 0.7071 -628.3446 476.3534)" class="st8" width="135.1" height="135.1"/>
	
		<rect x="384.4" y="929.2" transform="matrix(0.7071 -0.7071 0.7071 0.7071 -572.4274 611.5225)" class="st8" width="135.1" height="135.1"/>
	
		<rect x="575.4" y="929.1" transform="matrix(0.7071 -0.7071 0.7071 0.7071 -516.4366 746.5381)" class="st8" width="135.1" height="135.1"/>
	
		<rect x="766.4" y="929.1" transform="matrix(0.7071 -0.7071 0.7071 0.7071 -460.4851 881.5901)" class="st8" width="135.1" height="135.1"/>
	
		<rect x="957.5" y="929.2" transform="matrix(0.7071 -0.7071 0.7071 0.7071 -404.568 1016.7594)" class="st8" width="135.1" height="135.1"/>
	
		<rect x="1148.5" y="929.1" transform="matrix(0.7071 -0.7071 0.7071 0.7071 -348.5749 1151.7759)" class="st8" width="135.1" height="135.1"/>
</g>
<path class="st10" d="M-2.9,882.7l31.1-31.1l15.2,15.2l24.3-24.3l8,8l16.2-16.2l16.6,16.6l20.4-20.4l9,9l43.9-43.9
	c2.9,2.8,5.7,5.5,8.6,8.3c11.9-11.8,23.8-23.6,35.7-35.4l21.3,21.3l29.5-29.5l12.3,12.3l17.6-17.6l17.4,17.4l34.3-34.3l4.8,4.8
	l27.3-27.3l8.2,8.2l19.6-19.6l19.3,19.3l18.4-18.4l2.5,2.5l38-38l2.3,2.3l35.1-35.1l10.4,10.4l23.1-23.1l11.2,11.2l60.6-60.6
	l6.9,6.9l23.2-23.2l2,2l19.9-19.9l21.3,21.3l25.8-25.8l39.3,39.3l6.6-6.6l45.2,45.2l16.6-16.6c20.7,20.4,41.4,40.9,62.1,61.3
	c6-6,12.1-12.1,18.1-18.1c9.7,9.6,19.4,19.3,29.1,28.9c0.5-0.5,1-1,1.5-1.5c10.2,10.3,20.5,20.6,30.7,30.8c0.6-0.6,1.2-1.2,1.8-1.8
	l17.3,17.3L1017,704l26.9,26.9l15.1-15.1l27.6,27.6l13.2-13.2l18.3,18.3l12.2-12.2l31.2,31.2l3.6-3.6l28.3,28.3l7-7l17.7,17.7
	l18.1-18.1l18.8,18.8l8.4-8.4l26.7,26.7l1.9-1.9l11.7,11.7l15.3-15.3l15.3,15.3l9.7-9.7l25.2,25.2l17.8-17.8l42.2,42.2l4-4
	l30.9,30.9V1042H-2.9V882.7z"/>
<g id="Layer_4">
	
		<rect x="711.6" y="549" transform="matrix(0.7071 -0.7071 0.7071 0.7071 -190.9045 690.9189)" class="st11" width="53.9" height="53.9"/>
	
		<rect x="513.1" y="707.4" transform="matrix(0.7071 -0.7071 0.7071 0.7071 -365.899 608.5215)" class="st12" width="77.1" height="77.1"/>
	
		<rect x="712.7" y="613.6" transform="matrix(0.7071 -0.7071 0.7071 0.7071 -231.5672 699.1426)" class="st13" width="30.9" height="30.9"/>
	
		<rect x="691.3" y="637" transform="matrix(0.7071 -0.7071 0.7071 0.7071 -254.0645 690.1042)" class="st11" width="29.4" height="29.4"/>
	
		<rect x="1047.4" y="764.5" transform="matrix(0.7071 -0.7071 0.7071 0.7071 -247.8079 998.4203)" class="st12" width="67.7" height="67.7"/>
	
		<rect x="551" y="831.4" transform="matrix(0.7071 -0.7071 0.7071 0.7071 -455.3549 702.806)" class="st14" width="139.3" height="139.3"/>
	
		<rect x="383" y="844.5" transform="matrix(0.7071 -0.7071 0.7071 0.7071 -508.3831 574.6653)" class="st14" width="113" height="113"/>
	
		<rect x="897.2" y="772.9" transform="matrix(0.7071 -0.7071 0.7071 0.7071 -296.4501 891.4605)" class="st15" width="61.4" height="61.4"/>
	
		<rect x="193.7" y="833.5" transform="matrix(0.7071 -0.7071 0.7071 0.7071 -560.6052 448.6599)" class="st15" width="135.1" height="135.1"/>
	
		<rect x="92.1" y="847.1" transform="matrix(0.7071 -0.7071 0.7071 0.7071 -587.2357 350.011)" class="st16" width="73.6" height="73.6"/>
	
		<rect x="475.9" y="790.8" transform="matrix(0.7071 -0.7071 0.7071 0.7071 -438.3815 613.0172)" class="st16" width="89.8" height="89.8"/>
	
		<rect x="695.5" y="791.4" transform="matrix(0.7071 -0.7071 0.7071 0.7071 -379.8901 781.4995)" class="st15" width="115.8" height="115.8"/>
	
		<rect x="815.2" y="833.5" transform="matrix(0.7071 -0.7071 0.7071 0.7071 -378.5683 888.1169)" class="st16" width="135.1" height="135.1"/>
	
		<rect x="951.8" y="795.2" transform="matrix(0.7071 -0.7071 0.7071 0.7071 -305.4355 958.7729)" class="st14" width="105.7" height="105.7"/>
	
		<rect x="1040.8" y="850.2" transform="matrix(0.7071 -0.7071 0.7071 0.7071 -324.3007 1052.4985)" class="st14" width="135.1" height="135.1"/>
	
		<rect x="1156.8" y="805.2" transform="matrix(0.7071 -0.7071 0.7071 0.7071 -248.5348 1097.2156)" class="st16" width="86.8" height="86.8"/>
	<polygon class="st15" points="1216.1,897.9 1291.8,822.2 1367.4,897.9 1291.8,973.7 	"/>
	
		<rect x="1244.9" y="804.5" transform="matrix(0.7071 -0.7071 0.7071 0.7071 -211.711 1133.973)" class="st14" width="36.1" height="36.1"/>
	
		<rect x="151.4" y="809.3" transform="matrix(0.7071 -0.7071 0.7071 0.7071 -540.5256 374.4864)" class="st17" width="60.8" height="60.8"/>
	
		<rect x="1358" y="843.8" transform="matrix(0.7071 -0.7071 0.7071 0.7071 -210.774 1236.0481)" class="st14" width="57.4" height="57.4"/>
	
		<rect x="1413.5" y="878.7" transform="matrix(0.7071 -0.7071 0.7071 0.7071 -215.3325 1276.1261)" class="st14" width="38.5" height="38.5"/>
	
		<rect x="1326.9" y="831" transform="matrix(0.7071 -0.7071 0.7071 0.7071 -205.9166 1198.4229)" class="st16" width="33.5" height="33.5"/>
	
		<rect x="201.1" y="779.5" transform="matrix(0.7071 -0.7071 0.7071 0.7071 -502.5342 395.2282)" class="st14" width="49.5" height="49.5"/>
	
		<rect x="51" y="851.7" transform="matrix(0.7071 -0.7071 0.7071 0.7071 -594.1359 301.9995)" class="st15" width="32.9" height="32.9"/>
	
		<rect x="80.9" y="840.6" transform="matrix(0.7071 -0.7071 0.7071 0.7071 -575.2475 314.4565)" class="st14" width="22.1" height="22.1"/>
	
		<rect x="1.1" y="865" transform="matrix(0.7071 -0.7071 0.7071 0.7071 -622.5466 281.1797)" class="st14" width="54.1" height="54.1"/>
	
		<rect x="64.7" y="889.4" transform="matrix(0.7071 -0.7071 0.7071 0.7071 -614.5527 317.3014)" class="st14" width="22.1" height="22.1"/>
	
		<rect x="301.8" y="762.9" transform="matrix(0.7071 -0.7071 0.7071 0.7071 -474.4356 493.2726)" class="st15" width="112.9" height="112.9"/>
	
		<rect x="625.8" y="745.8" transform="matrix(0.7071 -0.7071 0.7071 0.7071 -361.6212 703.3143)" class="st16" width="84.7" height="84.7"/>
	
		<rect x="1117.5" y="801.6" transform="matrix(0.7071 -0.7071 0.7071 0.7071 -247.4697 1044.1993)" class="st16" width="38.5" height="38.5"/>
	
		<rect x="562.9" y="777.9" transform="matrix(0.7071 -0.7071 0.7071 0.7071 -394.7985 649.0869)" class="st15" width="46.5" height="46.5"/>
	
		<rect x="410.7" y="725.4" transform="matrix(0.7071 -0.7071 0.7071 0.7071 -411.3754 548.105)" class="st16" width="90.5" height="90.5"/>
	
		<rect x="1040.5" y="725.4" transform="matrix(0.7071 -0.7071 0.7071 0.7071 -215.9789 966.9726)" class="st17" width="37.5" height="37.5"/>
	
		<rect x="256.7" y="769.6" transform="matrix(0.7071 -0.7071 0.7071 0.7071 -477.3338 427.0785)" class="st17" width="40.3" height="40.3"/>
	
		<rect x="295.3" y="760.8" transform="matrix(0.7071 -0.7071 0.7071 0.7071 -456.2027 443.0463)" class="st12" width="22.8" height="22.8"/>
	
		<rect x="720.6" y="642" transform="matrix(0.7071 -0.7071 0.7071 0.7071 -256.0962 729.4759)" class="st11" width="63.8" height="63.8"/>
	
		<rect x="597.1" y="595.1" transform="matrix(0.7071 -0.7071 0.7071 0.7071 -263.362 638.6596)" class="st13" width="84.3" height="84.3"/>
	
		<rect x="766.7" y="688.3" transform="matrix(0.7071 -0.7071 0.7071 0.7071 -275.4559 775.857)" class="st11" width="64.2" height="64.2"/>
	
		<rect x="698.7" y="711.2" transform="matrix(0.7071 -0.7071 0.7071 0.7071 -311.1295 733.516)" class="st12" width="62.3" height="62.3"/>
	
		<rect x="653.9" y="666.6" transform="matrix(0.7071 -0.7071 0.7071 0.7071 -292.7047 688.6286)" class="st11" width="62" height="62"/>
	
		<rect x="470.3" y="682.4" transform="matrix(0.7071 -0.7071 0.7071 0.7071 -355.4885 558.2292)" class="st13" width="51.6" height="51.6"/>
	
		<rect x="405.4" y="710.8" transform="matrix(0.7071 -0.7071 0.7071 0.7071 -389.2709 507.9036)" class="st13" width="26.1" height="26.1"/>
	
		<rect x="510.4" y="649.8" transform="matrix(0.7071 -0.7071 0.7071 0.7071 -319.7464 574.7756)" class="st12" width="47.1" height="47.1"/>
	
		<rect x="564.1" y="662" transform="matrix(0.7071 -0.7071 0.7071 0.7071 -313.8578 619.2936)" class="st13" width="53.1" height="53.1"/>
	
		<rect x="551.7" y="633.7" transform="matrix(0.7071 -0.7071 0.7071 0.7071 -293.0016 591.3273)" class="st11" width="31.2" height="31.2"/>
	
		<rect x="601.7" y="700.3" transform="matrix(0.7071 -0.7071 0.7071 0.7071 -330.1693 657.7173)" class="st12" width="54.3" height="54.3"/>
	
		<rect x="794.7" y="747.6" transform="matrix(0.7071 -0.7071 0.7071 0.7071 -313.1062 822.5211)" class="st12" width="83.3" height="83.3"/>
	
		<rect x="760" y="750.1" transform="matrix(0.7071 -0.7071 0.7071 0.7071 -314.3138 772.8449)" class="st17" width="31.5" height="31.5"/>
	
		<rect x="941.6" y="728.2" transform="matrix(0.7071 -0.7071 0.7071 0.7071 -251.8305 909.7828)" class="st16" width="61.4" height="61.4"/>
	
		<rect x="1013.1" y="752.7" transform="matrix(0.7071 -0.7071 0.7071 0.7071 -243.1603 955.2581)" class="st16" width="36.9" height="36.9"/>
	
		<rect x="1146.1" y="773.7" transform="matrix(0.7071 -0.7071 0.7071 0.7071 -219.3584 1056.1155)" class="st14" width="38.2" height="38.2"/>
	
		<rect x="1224.1" y="791.8" transform="matrix(0.7071 -0.7071 0.7071 0.7071 -206.4718 1109.8311)" class="st14" width="24.7" height="24.7"/>
	
		<rect x="855.4" y="688.1" transform="matrix(0.7071 -0.7071 0.7071 0.7071 -253.2084 847.8575)" class="st16" width="82.9" height="82.9"/>
	
		<rect x="1109.7" y="747.1" transform="matrix(0.7071 -0.7071 0.7071 0.7071 -211.8835 1024.2394)" class="st16" width="41.5" height="41.5"/>
	
		<rect x="1087.6" y="737.1" transform="matrix(0.7071 -0.7071 0.7071 0.7071 -207.8292 997.4327)" class="st11" width="25" height="25"/>
	
		<rect x="1309" y="823" transform="matrix(0.7071 -0.7071 0.7071 0.7071 -202.6906 1176.6476)" class="st14" width="20" height="20"/>
	
		<rect x="998.3" y="712.9" transform="matrix(0.7071 -0.7071 0.7071 0.7071 -219.4277 933.3347)" class="st11" width="37.3" height="37.3"/>
	
		<rect x="978.1" y="703.1" transform="matrix(0.7071 -0.7071 0.7071 0.7071 -215.4929 909.0767)" class="st17" width="23.1" height="23.1"/>
	
		<rect x="372" y="724.6" transform="matrix(0.7071 -0.7071 0.7071 0.7071 -411.1718 494.0207)" class="st17" width="37.5" height="37.5"/>
	
		<rect x="803.3" y="616.7" transform="matrix(0.7071 -0.7071 0.7071 0.7071 -218.5138 791.4467)" class="st13" width="85.6" height="85.6"/>
	
		<rect x="935.9" y="678.2" transform="matrix(0.7071 -0.7071 0.7071 0.7071 -214.1841 881.4938)" class="st11" width="42.2" height="42.2"/>
	
		<rect x="906.2" y="650" transform="matrix(0.7071 -0.7071 0.7071 0.7071 -202.5586 851.3419)" class="st13" width="40.4" height="40.4"/>
	
		<rect x="753.2" y="583.2" transform="matrix(0.7071 -0.7071 0.7071 0.7071 -204.7306 734.6931)" class="st11" width="62.6" height="62.6"/>
	
		<rect x="678.2" y="585.5" transform="matrix(0.7071 -0.7071 0.7071 0.7071 -223.8959 671.7066)" class="st11" width="41.3" height="41.3"/>
	
		<rect x="653.4" y="567.8" transform="matrix(0.7071 -0.7071 0.7071 0.7071 -216.5054 643.7767)" class="st13" width="30.9" height="30.9"/>
	
		<rect x="677.7" y="548.2" transform="matrix(0.7071 -0.7071 0.7071 0.7071 -194.9212 653.7313)" class="st11" width="27.9" height="27.9"/>
	
		<rect x="592.7" y="753.4" transform="matrix(0.7071 -0.7071 0.7071 0.7071 -364.9317 653.7441)" class="st16" width="28" height="28"/>
</g>
<path class="st18" d="M-3,882.7l31.1-31.1l15.2,15.2l24.3-24.3l8,8l16.2-16.2l16.6,16.6l20.4-20.4l9,9l43.9-43.9
	c2.9,2.8,5.7,5.5,8.6,8.3c11.9-11.8,23.8-23.6,35.7-35.4l21.3,21.3l29.5-29.5l12.3,12.3l17.6-17.6l17.4,17.4l34.3-34.3l4.8,4.8
	l27.3-27.3l8.2,8.2l19.6-19.6l19.3,19.3L456,705l2.5,2.5l38-38l2.3,2.3l35.1-35.1l10.4,10.4l23.1-23.1l11.2,11.2l60.6-60.6l6.9,6.9
	l23.2-23.2l2,2l19.9-19.9l21.3,21.3l25.8-25.8l39.3,39.3l6.6-6.6l45.2,45.2l16.6-16.6c20.7,20.4,41.4,40.9,62.1,61.3
	c6-6,12.1-12.1,18.1-18.1c9.7,9.6,19.4,19.3,29.1,28.9c0.5-0.5,1-1,1.5-1.5c10.2,10.3,20.5,20.6,30.7,30.8c0.6-0.6,1.2-1.2,1.8-1.8
	l17.3,17.3l10.2-10.2l26.9,26.9l15.1-15.1l27.6,27.6l13.2-13.2l18.3,18.3l12.2-12.2l31.2,31.2l3.6-3.6l28.3,28.3l7-7l17.7,17.7
	l18.1-18.1l18.8,18.8l8.4-8.4l26.7,26.7l1.9-1.9l11.7,11.7l15.3-15.3l15.3,15.3l9.7-9.7l25.2,25.2l17.8-17.8l42.2,42.2l4-4
	l30.9,30.9V1042H-3V882.7z"/>
</svg>
