<?xml version="1.0" encoding="UTF-8"?><svg id="Layer_1" xmlns="http://www.w3.org/2000/svg" viewBox="0 0 986.57 905.1"><defs><style>.cls-1{stroke:#000;stroke-miterlimit:10;}</style></defs><path class="cls-1" d="M.7,3.47C72.77,208.55,144.83,413.63,216.89,618.71c-32.98,94.2-65.96,188.4-98.94,282.61H374.82c-12.19,.42-23.46-5.9-28.87-16.23-6.69-12.75-1.2-25.41-.49-27C442.59,580.38,539.72,302.66,636.85,24.95c1.65-3.3,5.81-10.49,14.32-15.68,5.79-3.53,11.31-4.73,14.71-5.19-77.79,.39-155.58,.78-233.37,1.17-36.4,103.95-72.81,207.89-109.21,311.84C286.25,211.57,249.19,106.04,212.13,.5,141.66,1.49,71.18,2.48,.7,3.47Z"/><path class="cls-1" d="M748.03,307.24c-27.58,76.4-55.15,152.79-82.73,229.19h163.03c-26.77-76.4-53.54-152.79-80.31-229.19Z"/><path class="cls-1" d="M604.56,716.69c-17.7,49.89-35.41,99.78-53.11,149.67-.57,3.05-1.76,7.49-4.46,12.24-4.55,7.99-10.74,12.15-15.25,15.11-8.86,5.82-17.63,8.13-23.75,9.12,158.76,.59,317.52,1.18,476.28,1.78-8.75-4.03-15.46-8.39-20.14-11.8-5.41-3.94-10.36-7.62-14.95-13.92-2.56-3.52-4.5-7.16-6.09-11.08-4.66-11.44-24.89-70.55-51.71-151.49-95.6,.13-191.21,.25-286.81,.38Z"/></svg>